<svg xmlns="http://www.w3.org/2000/svg" width="35.969" height="28.969" viewBox="0 0 35.969 28.969">
  <metadata><?xpacket begin="﻿" id="W5M0MpCehiHzreSzNTczkc9d"?>
<x:xmpmeta xmlns:x="adobe:ns:meta/" x:xmptk="Adobe XMP Core 5.6-c138 79.159824, 2016/09/14-01:09:01        ">
   <rdf:RDF xmlns:rdf="http://www.w3.org/1999/02/22-rdf-syntax-ns#">
      <rdf:Description rdf:about=""/>
   </rdf:RDF>
</x:xmpmeta>
                                                                                                    
                                                                                                    
                                                                                                    
                                                                                                    
                                                                                                    
                                                                                                    
                                                                                                    
                                                                                                    
                                                                                                    
                                                                                                    
                                                                                                    
                                                                                                    
                                                                                                    
                                                                                                    
                                                                                                    
                                                                                                    
                                                                                                    
                                                                                                    
                                                                                                    
                                                                                                    
                           
<?xpacket end="w"?></metadata>
<defs>
    <style>
      .cls-1 {
        fill: #e9e9e9;
        fill-rule: evenodd;
      }
    </style>
  </defs>
  <path id="_" data-name="“" class="cls-1" d="M171.845,845.987a7.306,7.306,0,0,0,7.421-7.355,7.1,7.1,0,0,0-7.421-7.354,7.019,7.019,0,0,0-4.306,1.516,7.282,7.282,0,0,1-.34-2.414c0-4.491,4.079-9.319,8.838-11.284l-1.076-2.077c-8.215,3.817-11.954,10.273-11.954,17.74a14.539,14.539,0,0,0,1.982,7.579A7.528,7.528,0,0,0,171.845,845.987Zm19.715,0a7.272,7.272,0,0,0,7.422-7.355,7.279,7.279,0,0,0-11.727-5.838,7.282,7.282,0,0,1-.34-2.414c0-4.491,4.079-9.319,8.838-11.284l-1.077-2.077c-8.215,3.817-11.954,10.273-11.954,17.74a14.541,14.541,0,0,0,1.983,7.579A7.592,7.592,0,0,0,191.56,845.987Z" transform="translate(-163 -817.031)"/>
</svg>
